# xmcd CD database file
#
# Track frame offsets:
#	150
#	32760
#	58743
#	95048
#	121433
#	158805
#	190765
#	219455
#	263688
#	291628
#
# Disc length: 4145 seconds
#
# Revision: 0
# Processed by: cddbd v1.5.2PL0 Copyright (c) Steve Scherf et al.
# Submitted via: CDex 1.70beta2
#
DISCID=97102f0a
DTITLE=Calderazzo, Joey - The traveler
DYEAR=1992
DGENRE=Jazz
TTITLE0=No adults
TTITLE1=Blue in green
TTITLE2=Dolphin dance
TTITLE3=Black nile
TTITLE4=Love
TTITLE5=What is this thing called love
TTITLE6=Yesterday's
TTITLE7=To wisdom, the prize
TTITLE8=Lunacy
TTITLE9=The traveler
EXTD=YEAR: 1992
EXTT0=
EXTT1=
EXTT2=
EXTT3=
EXTT4=
EXTT5=
EXTT6=
EXTT7=
EXTT8=
EXTT9=
PLAYORDER=
